<?xml version="1.0" standalone="no"?>
<!DOCTYPE svg PUBLIC "-//W3C//DTD SVG 20010904//EN"
 "http://www.w3.org/TR/2001/REC-SVG-20010904/DTD/svg10.dtd">
<svg version="1.0" xmlns="http://www.w3.org/2000/svg"
 width="300.000000pt" height="300.000000pt" viewBox="0 0 300.000000 300.000000"
 preserveAspectRatio="xMidYMid meet">

<g transform="translate(0.000000,300.000000) scale(0.100000,-0.100000)"
fill="#3555b4" stroke="none">
<path d="M1995 2541 c-286 -42 -528 -81 -538 -87 -10 -6 -21 -26 -25 -45 -4
-19 -6 -483 -4 -1031 l2 -998 185 0 185 0 0 275 0 276 25 24 c24 25 27 25 189
25 176 0 207 -6 225 -47 7 -15 11 -116 11 -288 l0 -265 185 0 185 0 0 1089 c0
599 -3 1097 -6 1106 -8 19 -56 45 -81 44 -10 -1 -252 -36 -538 -78z m-69 -466
c26 -35 28 -65 7 -93 -19 -26 -24 -27 -131 -30 -103 -2 -112 -1 -131 20 -35
37 -23 99 22 118 12 5 66 9 120 7 86 -2 101 -5 113 -22z m446 -5 c24 -25 29
-36 23 -58 -14 -56 -28 -62 -147 -62 -95 0 -110 2 -128 20 -30 30 -27 83 6
109 23 18 41 21 121 21 92 0 95 -1 125 -30z m-439 -382 c21 -28 19 -58 -7 -93
-13 -18 -26 -20 -126 -20 -105 0 -113 1 -131 24 -25 30 -24 76 1 101 19 19 31
20 132 18 107 -3 112 -4 131 -30z m442 12 c28 -31 24 -79 -10 -107 -26 -23
-34 -25 -126 -21 -113 4 -139 18 -139 75 0 61 24 73 148 73 96 0 111 -2 127
-20z m-448 -376 c20 -20 24 -31 19 -57 -11 -56 -35 -67 -146 -67 -83 0 -101 3
-124 21 -19 15 -26 30 -26 54 0 24 7 39 26 54 23 18 41 21 126 21 93 0 100 -2
125 -26z m440 11 c29 -20 37 -59 19 -94 -20 -38 -31 -41 -140 -41 -79 0 -97 3
-120 21 -34 27 -36 79 -4 109 19 17 35 20 123 20 72 0 106 -4 122 -15z"/>
<path d="M1135 2269 c-306 -44 -623 -89 -664 -95 -27 -3 -53 -15 -67 -29 l-24
-24 0 -871 0 -870 110 0 110 0 0 265 c0 172 4 273 11 288 18 41 49 47 223 47
150 0 165 -2 190 -21 l26 -20 0 -280 0 -279 115 0 115 0 0 955 c0 525 -3 955
-7 954 -5 -1 -66 -10 -138 -20z m-403 -566 c26 -23 24 -84 -3 -109 -17 -15
-36 -19 -91 -19 -61 0 -72 3 -89 24 -25 31 -24 75 3 101 29 27 151 29 180 3z
m370 0 c56 -66 12 -133 -86 -133 -56 0 -91 15 -105 47 -16 34 -14 47 10 77 19
24 27 26 93 26 57 0 76 -4 88 -17z m-382 -368 c26 -13 30 -21 30 -55 0 -56
-34 -80 -112 -80 -49 0 -63 4 -83 25 -14 13 -25 36 -25 50 0 14 11 37 25 50
20 21 34 25 80 25 31 0 69 -7 85 -15z m381 -4 c17 -13 23 -29 23 -56 0 -55
-29 -75 -109 -75 -73 0 -102 17 -111 67 -5 26 -1 37 19 57 23 23 35 26 90 26
48 0 71 -5 88 -19z"/>
</g>
</svg>
