<?xml version="1.0" standalone="no"?>
<!DOCTYPE svg PUBLIC "-//W3C//DTD SVG 20010904//EN"
        "http://www.w3.org/TR/2001/REC-SVG-20010904/DTD/svg10.dtd">
<svg version="1.0" xmlns="http://www.w3.org/2000/svg"
     width="300.000000pt" height="300.000000pt" viewBox="0 0 300.000000 300.000000"
     preserveAspectRatio="xMidYMid meet">

    <g transform="translate(0.000000,300.000000) scale(0.100000,-0.100000)"
       fill="#3555b4" stroke="none">
        <path d="M1438 2613 l-28 -4 0 -205 0 -204 90 0 90 0 0 204 0 204 -31 6 c-33
6 -75 6 -121 -1z"/>
        <path d="M1303 2568 c-125 -69 -212 -192 -237 -335 l-5 -33 149 0 150 0 0 195
c0 107 -3 195 -8 195 -4 0 -26 -10 -49 -22z"/>
        <path d="M1640 2396 l0 -196 150 0 150 0 -6 33 c-28 158 -148 314 -271 352
l-23 6 0 -195z"/>
        <path d="M1010 2140 c0 -20 7 -20 487 -17 455 2 488 3 491 20 3 16 -25 17
-487 17 -483 0 -491 0 -491 -20z"/>
        <path d="M1107 2073 c-13 -12 -7 -33 8 -33 8 0 15 9 15 20 0 20 -11 26 -23 13z"/>
        <path d="M1168 2038 l-3 -43 -61 3 c-58 4 -62 2 -87 -28 -15 -18 -27 -44 -27
-60 0 -40 49 -90 88 -90 28 0 31 -4 42 -52 55 -234 227 -346 467 -304 153 27
252 130 293 304 10 45 15 52 37 52 38 0 83 51 83 93 0 27 -7 41 -32 62 -27 23
-39 26 -82 23 l-51 -3 -3 43 -3 42 -329 0 -329 0 -3 -42z m202 -8 c55 -55 -24
-135 -82 -83 -25 23 -23 68 4 87 30 21 54 20 78 -4z m338 4 c28 -19 29 -57 2
-84 -26 -26 -55 -25 -81 1 -15 15 -19 28 -14 47 11 49 52 65 93 36z m-628 -83
c0 -11 -5 -23 -10 -26 -6 -4 -9 -16 -8 -28 4 -32 -15 -34 -32 -4 -12 22 -12
29 0 51 16 31 50 35 50 7z m888 -24 c3 -37 -10 -67 -30 -67 -6 0 -7 11 -4 26
4 15 2 32 -5 40 -15 19 -3 46 18 42 13 -2 19 -14 21 -41z m-562 -232 c29 -19
49 -25 94 -25 45 0 65 6 94 25 67 45 95 18 32 -30 -46 -35 -98 -48 -157 -40
-57 8 -132 56 -123 80 8 21 17 19 60 -10z"/>
        <path d="M1870 2059 c0 -24 23 -21 28 4 2 10 -3 17 -12 17 -10 0 -16 -9 -16
-21z"/>
        <path d="M1147 1490 c-76 -48 -142 -159 -154 -260 -7 -60 -20 -58 105 -16 l67
23 3 57 c2 40 8 59 19 63 25 10 28 -10 22 -119 -4 -56 -7 -133 -8 -170 l-1
-68 80 0 80 0 0 214 0 214 -35 12 c-19 6 -57 27 -84 45 l-49 34 -45 -29z"/>
        <path d="M1766 1489 c-21 -15 -58 -36 -82 -45 l-44 -17 0 -213 0 -212 71 -4
c39 -2 76 0 81 3 6 4 7 69 3 184 -7 170 -7 177 11 173 15 -2 20 -15 24 -62 l5
-60 80 -27 c44 -15 84 -28 89 -28 13 -1 -2 93 -25 154 -22 58 -94 143 -144
168 -29 15 -32 14 -69 -14z"/>
        <path d="M1410 1208 c0 -114 3 -208 8 -210 4 -2 44 -2 89 0 l82 3 3 207 3 207
-92 0 -93 0 0 -207z"/>
        <path d="M1091 1166 l-64 -22 -3 -49 c-5 -70 4 -101 38 -141 31 -35 58 -43 76
-21 10 11 30 258 21 256 -2 0 -33 -11 -68 -23z"/>
        <path d="M1844 1068 c8 -124 15 -148 45 -148 22 0 67 47 81 85 16 42 4 141
-18 148 -10 3 -39 13 -66 21 l-49 16 7 -122z"/>
        <path d="M1187 863 c-4 -49 -10 -158 -13 -243 l-7 -155 24 22 c65 59 196 58
257 -3 7 -8 18 -14 23 -14 5 0 9 62 9 145 0 138 1 145 20 145 19 0 20 -7 20
-152 l0 -151 23 20 c74 68 213 73 266 10 7 -9 16 -15 20 -13 3 3 3 58 -1 123
-4 65 -10 171 -13 236 l-7 117 -308 0 -307 0 -6 -87z"/>
        <path d="M1262 480 c-27 -12 -54 -36 -77 -72 l-17 -28 146 0 c80 0 146 2 146
5 0 16 -26 54 -52 74 -33 27 -107 37 -146 21z"/>
        <path d="M1610 468 c-18 -13 -44 -38 -58 -55 l-25 -33 152 0 152 0 -18 31
c-23 40 -90 79 -135 79 -20 0 -49 -10 -68 -22z"/>
    </g>
</svg>
