<?xml version="1.0" standalone="no"?>
<!DOCTYPE svg PUBLIC "-//W3C//DTD SVG 20010904//EN"
 "http://www.w3.org/TR/2001/REC-SVG-20010904/DTD/svg10.dtd">
<svg version="1.0" xmlns="http://www.w3.org/2000/svg"
 width="300.000000pt" height="300.000000pt" viewBox="0 0 300.000000 300.000000"
 preserveAspectRatio="xMidYMid meet">

<g transform="translate(0.000000,300.000000) scale(0.100000,-0.100000)"
fill="#3555b4" stroke="none">
<path d="M1190 2342 c-49 -24 -60 -53 -60 -159 0 -85 2 -93 19 -93 17 0 19 9
23 91 5 136 -13 129 330 129 l279 0 24 -25 c23 -22 25 -32 25 -110 0 -78 2
-85 20 -85 18 0 20 7 21 58 4 141 -13 183 -79 202 -21 5 -151 10 -302 10 -232
0 -269 -2 -300 -18z"/>
<path d="M1216 2254 c-3 -9 -6 -49 -6 -90 l0 -74 290 0 290 0 0 78 c0 47 -5
83 -12 90 -9 9 -86 12 -284 12 -239 0 -273 -2 -278 -16z"/>
<path d="M419 2043 c-38 -10 -39 -37 -39 -707 0 -651 0 -653 21 -672 18 -16
40 -19 155 -22 l134 -4 0 706 0 706 -127 -1 c-71 -1 -135 -3 -144 -6z"/>
<path d="M730 1345 l0 -706 68 3 67 3 3 703 2 702 -70 0 -70 0 0 -705z"/>
<path d="M910 1345 l0 -705 590 0 590 0 0 705 0 705 -590 0 -590 0 0 -705z"/>
<path d="M2135 2038 c-3 -7 -4 -323 -3 -703 l3 -690 68 -3 67 -3 0 706 0 705
-65 0 c-43 0 -67 -4 -70 -12z"/>
<path d="M2310 1345 l0 -705 129 0 c115 0 131 2 155 21 l26 20 0 664 0 664
-26 20 c-24 19 -40 21 -155 21 l-129 0 0 -705z"/>
</g>
</svg>
