<?xml version="1.0" standalone="no"?>
<!DOCTYPE svg PUBLIC "-//W3C//DTD SVG 20010904//EN"
 "http://www.w3.org/TR/2001/REC-SVG-20010904/DTD/svg10.dtd">
<svg version="1.0" xmlns="http://www.w3.org/2000/svg"
 width="300.000000pt" height="300.000000pt" viewBox="0 0 300.000000 300.000000"
 preserveAspectRatio="xMidYMid meet">

<g transform="translate(0.000000,300.000000) scale(0.100000,-0.100000)"
fill="#000000" stroke="none">
<path d="M685 2479 c-4 -6 -5 -12 -2 -15 2 -3 7 2 10 11 7 17 1 20 -8 4z"/>
<path d="M631 2394 c0 -11 3 -14 6 -6 3 7 2 16 -1 19 -3 4 -6 -2 -5 -13z"/>
<path d="M680 2330 c0 -5 5 -10 10 -10 6 0 10 5 10 10 0 6 -4 10 -10 10 -5 0
-10 -4 -10 -10z"/>
<path d="M640 2311 c0 -5 3 -11 8 -13 4 -1 15 -21 25 -42 13 -28 21 -36 27
-27 6 11 8 11 12 0 3 -8 5 0 4 18 -1 17 -4 29 -8 27 -4 -3 -17 7 -30 21 -22
26 -38 32 -38 16z m60 -52 c0 -14 -17 -10 -23 5 -4 10 -1 13 9 9 7 -3 14 -9
14 -14z"/>
<path d="M749 2145 c59 -80 47 -64 185 -260 58 -82 109 -155 114 -161 5 -5 22
-29 37 -52 15 -23 30 -42 32 -42 2 0 1 5 -3 12 -4 7 -3 8 5 4 6 -4 9 -11 6
-16 -3 -5 2 -18 12 -29 13 -15 19 -17 25 -8 5 7 6 0 2 -15 -6 -28 10 -41 19
-15 2 6 3 4 1 -7 -1 -10 2 -27 9 -37 9 -14 9 -21 0 -30 -14 -14 -9 -25 54
-120 26 -39 58 -74 78 -85 19 -10 35 -24 35 -31 0 -8 12 -13 29 -13 17 0 32
-4 35 -9 3 -5 22 -12 42 -16 33 -6 35 -7 18 -20 -18 -13 -17 -14 9 -20 22 -6
26 -11 21 -29 -8 -26 -12 -31 -20 -23 -4 4 -1 13 6 22 10 12 10 15 -4 15 -11
0 -16 -9 -16 -32 0 -30 -1 -31 -15 -12 -13 17 -14 17 -15 2 0 -10 5 -18 10
-18 6 0 10 -5 10 -11 0 -6 -7 -9 -15 -6 -18 8 -29 -8 -18 -28 7 -11 12 -8 28
15 11 16 25 32 31 34 6 2 34 -28 62 -67 29 -38 52 -65 52 -59 0 9 21 10 59 3
2 -1 -2 -8 -9 -16 -7 -9 -10 -19 -6 -22 4 -4 12 -1 17 7 9 12 10 12 5 -2 -3
-10 -3 -25 0 -33 7 -17 49 -20 59 -5 9 15 25 12 25 -5 0 -8 -4 -15 -9 -15 -5
0 -11 -12 -13 -27 -2 -19 -8 -28 -20 -27 -14 1 -11 -7 15 -44 41 -59 84 -107
69 -76 -6 11 -18 26 -26 34 -9 7 -16 19 -16 27 0 7 -7 16 -15 19 -8 4 -15 11
-15 16 0 6 7 7 16 4 12 -4 15 -2 10 9 -4 12 2 15 29 15 34 0 35 -1 35 -40 0
-22 5 -40 10 -40 6 0 10 -6 10 -13 0 -19 56 -67 79 -67 18 0 21 -6 21 -40 0
-34 3 -40 21 -40 18 0 20 -5 18 -47 -2 -30 1 -48 9 -51 7 -2 12 1 12 7 0 6 13
11 29 11 28 0 30 -3 33 -42 3 -38 6 -42 33 -45 16 -3 35 -9 41 -14 7 -6 21 -6
38 1 39 14 53 12 30 -5 -10 -8 -39 -15 -64 -16 -40 -2 -41 -3 -11 -6 159 -20
293 175 221 318 -12 22 -47 75 -78 119 -31 43 -90 126 -131 184 -41 58 -80
113 -87 123 -24 30 -177 246 -214 301 -19 29 -38 52 -42 52 -4 0 -15 -12 -25
-27 -9 -16 -42 -54 -73 -85 -53 -54 -58 -57 -125 -66 -94 -13 -115 -4 -115 48
0 34 -3 40 -21 40 -23 0 -79 48 -79 67 0 8 -13 13 -30 13 -28 0 -30 2 -30 40
0 36 -2 40 -25 40 -22 0 -25 4 -25 40 0 34 -3 40 -21 40 -12 0 -28 -8 -35 -17
-10 -14 -12 -15 -12 -3 4 70 -3 100 -32 127 -16 15 -30 34 -30 40 0 7 -6 13
-13 13 -6 0 -26 15 -44 34 -17 19 -34 32 -37 29 -3 -4 -6 -1 -6 5 0 15 -32 16
-47 1 -7 -7 -12 -6 -16 5 -4 10 -1 13 9 9 11 -4 14 4 14 36 l0 41 -40 -3 -40
-3 0 43 c0 24 -4 43 -10 43 -10 0 -14 -13 -11 -40 2 -13 1 -13 -8 0 -6 8 -9
22 -7 30 16 61 16 69 1 64 -8 -4 -15 -1 -15 5 0 6 -14 11 -31 11 -16 0 -28 4
-24 10 3 5 3 21 -1 35 -5 19 -9 23 -19 15 -10 -8 -15 -8 -20 1 -4 6 -1 16 6
21 10 7 7 8 -10 4 -14 -3 -31 0 -39 7 -8 7 8 -20 37 -58z m41 -10 c0 -8 -4
-15 -10 -15 -5 0 -10 7 -10 15 0 8 5 15 10 15 6 0 10 -7 10 -15z m62 -70 c3
-14 2 -25 -1 -25 -10 0 -30 37 -24 44 12 12 21 6 25 -19z m94 -135 c15 0 19
-12 7 -23 -7 -8 -33 23 -32 38 0 6 3 4 6 -2 2 -7 11 -13 19 -13z m73 -108 c8
-25 6 -30 -5 -25 -8 3 -14 19 -14 36 0 36 7 32 19 -11z m18 6 c-3 -8 -6 -5 -6
6 -1 11 2 17 5 13 3 -3 4 -12 1 -19z m63 -123 c6 -8 10 -20 8 -26 -2 -6 -12 0
-21 15 -18 27 -8 37 13 11z m60 -85 c0 -5 -4 -10 -10 -10 -5 0 -10 5 -10 10 0
6 5 10 10 10 6 0 10 -4 10 -10z m443 -610 c5 -23 4 -24 -9 -5 -8 10 -14 25
-14 32 0 7 -4 13 -10 13 -5 0 -10 8 -10 18 0 14 4 12 19 -8 11 -13 22 -36 24
-50z m734 -402 c-3 -8 -6 -5 -6 6 -1 11 2 17 5 13 3 -3 4 -12 1 -19z"/>
<path d="M1147 1417 c-3 -8 3 -14 16 -15 12 0 17 2 12 6 -6 4 -13 11 -16 15
-4 4 -9 2 -12 -6z"/>
<path d="M1450 1149 c0 -5 5 -7 10 -4 6 3 10 8 10 11 0 2 -4 4 -10 4 -5 0 -10
-5 -10 -11z"/>
<path d="M1621 960 c0 -8 13 -33 29 -54 17 -22 30 -35 30 -29 0 7 -11 24 -24
40 -12 15 -26 35 -29 43 -5 13 -5 13 -6 0z"/>
<path d="M1807 744 c3 -7 9 -14 14 -14 14 0 10 17 -5 23 -10 4 -13 1 -9 -9z"/>
<path d="M1816 672 c5 -4 12 -11 15 -15 3 -5 9 -2 12 5 3 9 -3 14 -15 15 -11
1 -16 -1 -12 -5z"/>
<path d="M1860 660 c0 -5 4 -10 9 -10 6 0 13 5 16 10 3 6 -1 10 -9 10 -9 0
-16 -4 -16 -10z"/>
<path d="M1902 653 c-9 -15 -9 -29 -2 -49 6 -15 8 -36 5 -48 -5 -18 -4 -18 5
-4 10 17 9 52 -3 64 -4 4 -2 13 4 20 6 7 9 19 7 26 -3 8 -9 5 -16 -9z"/>
<path d="M1860 626 c0 -3 5 -17 12 -31 11 -25 28 -34 28 -15 0 6 -4 10 -10 10
-5 0 -10 6 -10 14 0 8 -4 18 -10 21 -5 3 -10 4 -10 1z"/>
<path d="M1940 500 c0 -5 5 -10 11 -10 5 0 7 5 4 10 -3 6 -8 10 -11 10 -2 0
-4 -4 -4 -10z"/>
<path d="M2048 409 c12 -5 32 -5 44 0 18 6 13 8 -22 8 -35 0 -40 -2 -22 -8z"/>
</g>
</svg>
